<svg width="28" height="29" viewBox="0 0 28 29" fill="none" xmlns="http://www.w3.org/2000/svg">
<path fill-rule="evenodd" clip-rule="evenodd" d="M0.529798 4.87648C0 6.15553 0 7.777 0 11.0199V17.98C0 21.2229 0 22.8444 0.529798 24.1234C1.2362 25.8288 2.59113 27.1838 4.29652 27.8902C5.57557 28.42 7.19704 28.42 10.44 28.42H17.4C20.643 28.42 22.2644 28.42 23.5435 27.8902C25.2489 27.1838 26.6038 25.8288 27.3102 24.1234C27.84 22.8444 27.84 21.2229 27.84 17.98V11.02C27.84 7.777 27.84 6.15553 27.3102 4.87648C26.6038 3.17108 25.2489 1.81615 23.5435 1.10975C22.2644 0.579956 20.643 0.579956 17.4 0.579956H10.44C7.19705 0.579956 5.57557 0.579956 4.29652 1.10975C2.59113 1.81615 1.2362 3.17108 0.529798 4.87648ZM16.0554 8.20215C16.0853 8.09385 15.9592 8.01056 15.8713 8.08057L8.10196 14.2709C8.02781 14.33 8.052 14.4482 8.14339 14.4735L12.2848 15.6162C12.3466 15.6333 12.3828 15.6971 12.3658 15.7589L11.0516 20.5215C11.0217 20.6298 11.1478 20.7131 11.2357 20.6431L19.0051 14.4528C19.0792 14.3937 19.055 14.2754 18.9636 14.2502L14.8222 13.1074C14.7605 13.0904 14.7242 13.0265 14.7413 12.9648L16.0554 8.20215Z" fill="#2563EB"/>
</svg>
